<svg xmlns="http://www.w3.org/2000/svg" viewBox="0 0 512 512" width="512" height="512">
  <circle cx="256" cy="256" r="240" fill="#FF4B3E"/>
  <!-- Elegant Plate and Utensils Icon in White -->
  <path d="M160 120c-8.8 0-16 7.2-16 16v136c0 40 28 73.8 66.2 82.5l-10.2 46.2c-1.9 8.6 3.6 17.3 12.2 19.2 8.6 1.9 17.3-3.6 19.2-12.2l12.4-56.3c1.7-7.8 8.6-13.4 16.6-13.4h11.6c8 0 14.9 5.6 16.6 13.4l12.4 56.3c1.9 8.6 10.6 14.1 19.2 12.2 8.6-1.9 14.1-10.6 12.2-19.2l-10.2-46.2c38.2-8.7 66.2-42.5 66.2-82.5V136c0-8.8-7.2-16-16-16s-16 7.2-16 16v96h-32V136c0-8.8-7.2-16-16-16s-16 7.2-16 16v96h-32V136c0-8.8-7.2-16-16-16s-16 7.2-16 16v96h-32V136c0-8.8-7.2-16-16-16z" fill="#ffffff"/>
  <path d="M368 120c-26.5 0-48 21.5-48 48v104c0 38.3 22.4 71.3 55.1 87.2l-20.7 93.3c-1.9 8.6 3.6 17.3 12.2 19.2 8.6 1.9 17.3-3.6 19.2-12.2l22.6-101.9c12.5-12.2 21.6-28.7 21.6-47.6V168c0-26.5-21.5-48-48-48z" fill="#ffffff"/>
</svg>
